<svg id="Layer_1" enable-background="new 0 0 512 512" height="512" viewBox="0 0 512 512" width="512" xmlns="http://www.w3.org/2000/svg"><path d="m511.104 413.653-17.478-48.287h-65.076l-17.478 48.287c-1.34 3.703-1.171 7.784.472 11.362l35.912 78.242c2.445 5.328 7.771 8.743 13.633 8.743s11.188-3.415 13.633-8.743l35.911-78.242c1.642-3.578 1.811-7.66.471-11.362z" fill="#f4f1f1"/><path d="m511.104 413.653-17.478-48.287h-32.536v146.634c5.862 0 11.187-3.415 13.632-8.743l35.911-78.242c1.642-3.578 1.811-7.66.471-11.362z" fill="#e7dfdd"/><path d="m366.03 0h-351.03c-8.284 0-15 6.716-15 15v482c0 8.284 6.716 15 15 15h351.03c8.284 0 15-6.716 15-15v-482c0-8.284-6.716-15-15-15z" fill="#f4f1f1"/><g><path d="m366.03 0h-175.515v512h175.515c8.284 0 15-6.716 15-15v-482c0-8.284-6.716-15-15-15z" fill="#e7dfdd"/></g><g><g><path d="m333.402 143.679h-95.259c-8.284 0-15-6.716-15-15s6.716-15 15-15h95.259c8.284 0 15 6.716 15 15s-6.716 15-15 15z" fill="#38336b"/></g><g><path d="m333.402 234.684h-95.259c-8.284 0-15-6.716-15-15s6.716-15 15-15h95.259c8.284 0 15 6.716 15 15s-6.716 15-15 15z" fill="#38336b"/></g><g><path d="m333.402 325.688h-95.259c-8.284 0-15-6.716-15-15s6.716-15 15-15h95.259c8.284 0 15 6.716 15 15s-6.716 15-15 15z" fill="#38336b"/></g><g><path d="m333.402 420.178h-95.259c-8.284 0-15-6.716-15-15s6.716-15 15-15h95.259c8.284 0 15 6.716 15 15s-6.716 15-15 15z" fill="#38336b"/></g></g><g><g><path d="m84.308 161.59c-3.979 0-7.794-1.58-10.606-4.394l-21.473-21.473c-5.858-5.858-5.858-15.355 0-21.213s15.356-5.857 21.213 0l10.866 10.866 34.956-34.956c5.857-5.858 15.355-5.858 21.213 0s5.858 15.355 0 21.213l-45.562 45.563c-2.813 2.814-6.629 4.394-10.607 4.394z" fill="#90d960"/></g><g><path d="m84.308 252.595c-3.979 0-7.794-1.58-10.606-4.394l-21.473-21.473c-5.858-5.858-5.858-15.355 0-21.213s15.356-5.857 21.213 0l10.866 10.866 34.956-34.956c5.857-5.858 15.355-5.858 21.213 0s5.858 15.355 0 21.213l-45.562 45.563c-2.813 2.813-6.629 4.394-10.607 4.394z" fill="#90d960"/></g><g><path d="m84.308 343.599c-3.979 0-7.794-1.58-10.606-4.394l-21.473-21.473c-5.858-5.858-5.858-15.355 0-21.213s15.356-5.858 21.213 0l10.866 10.866 34.956-34.956c5.857-5.857 15.355-5.858 21.213 0s5.858 15.355 0 21.213l-45.562 45.562c-2.813 2.815-6.629 4.395-10.607 4.395z" fill="#90d960"/></g></g><path d="m512 50.91v312.59c0 8.29-6.72 15-15 15h-71.82c-8.29 0-15-6.71-15-15v-312.59c0-28.07 22.84-50.91 50.91-50.91s50.91 22.84 50.91 50.91z" fill="#ffda2c"/><path d="m461.09 0v378.5h35.91c8.28 0 15-6.71 15-15v-312.59c0-28.07-22.84-50.91-50.91-50.91z" fill="#febf00"/><g><path d="m410.18 94.91h101.82v30h-101.82z" fill="#d20041"/></g><path d="m461.09 94.91h50.91v30h-50.91z" fill="#ba003a"/></svg>