<?xml version="1.0" encoding="iso-8859-1"?>
<!-- Generator: Adobe Illustrator 19.0.0, SVG Export Plug-In . SVG Version: 6.00 Build 0)  -->
<svg version="1.1" id="Capa_1" xmlns="http://www.w3.org/2000/svg" xmlns:xlink="http://www.w3.org/1999/xlink" x="0px" y="0px"
	 viewBox="0 0 512.003 512.003" style="enable-background:new 0 0 512.003 512.003;" xml:space="preserve">
<path style="fill:#ED5575;" d="M102.298,289.342H59.515c-3.793,0-7.493-1.603-11.061-0.849
	c-24.082,5.091-42.155,26.467-42.155,52.065v51.455c0,2.293,1.858,4.151,4.151,4.151h140.913c2.293,0,4.151-1.858,4.151-4.151
	v-51.455c0-25.598-18.074-46.975-42.156-52.065C109.79,287.739,106.09,289.342,102.298,289.342z"/>
<path style="fill:#444966;" d="M153.545,215.592v-39.659c0-40.117-32.521-72.639-72.639-72.639l0,0
	c-40.117,0-72.639,32.521-72.639,72.639v39.659c0,10.679-3.437,23.721-7.78,31.962c-1.459,2.769,0.536,6.091,3.666,6.091h153.506
	c3.13,0,5.125-3.322,3.666-6.091C156.982,239.313,153.545,226.271,153.545,215.592z"/>
<path style="fill:#FCD0AE;" d="M134.769,195.807v11.315c0,29.745-24.118,53.855-53.863,53.855s-53.863-24.11-53.863-53.855v-35.061
	c0-1.891,0.109-3.766,0.318-5.603h6.882c7.316,0,13.857,4.557,16.399,11.424c1.992,5.386,5.557,9.866,10.052,13.005
	c4.503,3.131,9.943,4.921,15.686,4.921h58.389V195.807z"/>
<path style="fill:#EBEEF2;" d="M113.358,288.501c-3.569-0.755-7.266-1.158-11.059-1.158H59.515c-3.793,0-7.491,0.404-11.059,1.158
	c2.559,19.414,15.177,35.651,32.451,43.313C98.181,324.151,110.799,307.914,113.358,288.501z"/>
<circle style="fill:#2E344C;" cx="485.201" cy="220.721" r="26.802"/>
<path style="fill:#FCD0AE;" d="M431.336,260.981L431.336,260.981c-29.747,0-53.862-24.115-53.862-53.862v-35.056
	c0-27.578,22.356-49.934,49.934-49.934h7.857c27.578,0,49.934,22.356,49.934,49.934v35.056
	C485.198,236.866,461.083,260.981,431.336,260.981z"/>
<path style="fill:#5C9CEE;" d="M452.727,287.342h-42.783c-29.39,0-53.216,23.825-53.216,53.216v51.455
	c0,2.293,1.858,4.151,4.151,4.151h140.913c2.293,0,4.151-1.858,4.151-4.151v-51.455
	C505.943,311.168,482.118,287.342,452.727,287.342z"/>
<path style="fill:#444966;" d="M485.199,172.065v35.216c-77.043-6.795-83.551-48.35-83.551-48.35v26.577h-24.175v-13.444
	c0-27.58,22.354-49.934,49.934-49.934h7.857C462.844,122.13,485.199,144.485,485.199,172.065z"/>
<path style="fill:#EBEEF2;" d="M463.787,288.501c-3.569-0.755-7.266-1.158-11.059-1.158h-42.784c-3.793,0-7.491,0.404-11.059,1.158
	c2.559,19.414,15.177,35.651,32.451,43.313C448.61,324.151,461.228,307.914,463.787,288.501z"/>
<path style="fill:#FCAB29;" d="M358.186,358.237c-25.041-91.374-24.486-97.661-6.901-182.944c1.569-7.02,2.403-14.318,2.403-21.811
	c0-54.991-44.579-99.569-99.569-99.569s-99.569,44.579-99.569,99.569c0,7.493,0.834,14.791,2.403,21.811
	c17.586,85.282,18.141,91.57-6.901,182.944c-2.867,9.735-4.413,20.035-4.413,30.699c0,59.912,48.568,45.445,108.48,45.445
	s108.48,14.466,108.48-45.445C362.599,378.272,361.053,367.972,358.186,358.237z"/>
<path style="fill:#DD8D19;" d="M358.186,358.237c-25.041-91.374-24.486-97.661-6.901-182.943c1.569-7.02,2.403-14.318,2.403-21.811
	c0-54.991-44.579-99.569-99.569-99.569c-2.573,0-5.123,0.098-7.647,0.289c44.646,3.905,79.817,46.862,79.817,99.28
	c0,7.493-0.724,14.791-2.086,21.811c-15.27,85.283-15.751,91.569,5.992,182.943c2.49,9.735,3.832,20.036,3.832,30.699
	c0,36.149-15.357,45.216-38.963,46.725c39.614,1.366,67.536-1.302,67.536-46.725C362.599,378.272,361.053,367.972,358.186,358.237z"
	/>
<path style="fill:#656D88;" d="M285.223,301.861h-62.208c-11.892,0-23.157,0.682-33.223,5.475
	c-26.108,12.431-44.153,39.058-44.153,69.9v70.475c0,5.731,4.646,10.378,10.378,10.378h196.204c5.731,0,10.378-4.646,10.378-10.378
	v-70.474c0-31.054-18.294-57.835-44.692-70.155C307.978,302.449,296.902,301.861,285.223,301.861z"/>
<path style="fill:#444966;" d="M285.223,301.861h-15.69c16.201,0,31.092,4.32,42.836,14.891
	c15.752,14.178,25.843,36.004,25.843,60.485v70.475c0,5.731-4.124,10.378-9.211,10.378h23.221c5.731,0,10.378-4.647,10.378-10.378
	v-70.475c0-31.054-18.294-57.835-44.692-70.155C307.978,302.449,296.902,301.861,285.223,301.861z"/>
<path style="fill:#FCD0AE;" d="M326.569,204.894c-4.05,36.414-34.945,64.739-72.45,64.739c-40.264,0-72.911-32.648-72.911-72.911
	v-47.45c0-17.635,6.756-33.697,17.824-45.729C215.649,141.917,258.924,187.353,326.569,204.894z"/>
<path style="fill:#E59F6A;" d="M299.474,195.908c0.143,2.85,0.035,5.835-0.386,8.986c-3.06,33.93-25.025,60.826-52.613,64.339
	c2.513,0.261,5.062,0.4,7.644,0.4c37.505,0,68.4-28.325,72.45-64.739C317.046,202.424,308.024,199.385,299.474,195.908z"/>
<path style="fill:#EBEEF2;" d="M254.119,423.079l63.587-116.068c-9.88-4.578-20.879-7.15-32.484-7.15h-62.207
	c-11.605,0-22.604,2.572-32.483,7.15L254.119,423.079z"/>
<path style="fill:#ED5575;" d="M265.421,328.344c11.329-4.499,19.343-15.552,19.343-28.484h-61.289
	c0,12.931,8.014,23.984,19.343,28.484l-10.124,55.625l21.426,39.11l21.426-39.11L265.421,328.344z"/>
<g>
</g>
<g>
</g>
<g>
</g>
<g>
</g>
<g>
</g>
<g>
</g>
<g>
</g>
<g>
</g>
<g>
</g>
<g>
</g>
<g>
</g>
<g>
</g>
<g>
</g>
<g>
</g>
<g>
</g>
</svg>
