<svg height="472pt" viewBox="-3 0 471 472" width="472pt" xmlns="http://www.w3.org/2000/svg"><path d="m294.101562 456-21.601562-72h-80l-21.601562 72h-26.398438v16h176v-16zm0 0" fill="#e0e0de"/><path d="m279.699219 408-7.199219-24h-80l-7.199219 24zm0 0" fill="#d6d6d4"/><path d="m24.5 64c-13.253906 0-24 10.746094-24 24v248h464v-248c0-13.253906-10.746094-24-24-24zm0 0" fill="#348fd9"/><path d="m.5 336v24c0 13.253906 10.746094 24 24 24h416c13.253906 0 24-10.746094 24-24v-24zm0 0" fill="#e0e0de"/><path d="m360.5 0h-296c-13.253906 0-24 10.746094-24 24v312h384v-272zm0 0" fill="#60d1e0"/><path d="m424.5 104-232 232h232zm0 0" fill="#5ac6d4"/><path d="m40.5 320h384v16h-384zm0 0" fill="#5ac6d4"/><path d="m.5 320h40v16h-40zm0 0" fill="#3086cd"/><path d="m400.5 136h-256v-40l-72 64 72 64v-40h256zm0 0" fill="#ffb531"/><g fill="#3fb7c7"><path d="m64.5 24h16v16h-16zm0 0"/><path d="m96.5 24h16v16h-16zm0 0"/><path d="m128.5 24h16v16h-16zm0 0"/></g><path d="m376.5 64h48l-64-64v48c0 8.835938 7.164062 16 16 16zm0 0" fill="#9fe4ed"/><path d="m64.5 56h272v16h-272zm0 0" fill="#3fb7c7"/><path d="m424.5 64h-48c0 8.835938 7.164062 16 16 16h32zm0 0" fill="#5ac6d4"/><path d="m440.5 320v-256h-16v272h40v-16zm0 0" fill="#3086cd"/><path d="m400.5 136h-132l-48 48h180zm0 0" fill="#ffa912"/><path d="m64.5 264h256v40l72-64-72-64v40h-256zm0 0" fill="#e94f4f"/><path d="m392.5 240-72-64v40h-48l-48 48h96v40zm0 0" fill="#e04646"/><path d="m419.1875 360.214844c-4.648438-.792969-9.410156.507812-13.011719 3.550781-3.601562 3.042969-5.679687 7.519531-5.675781 12.234375 0-8.835938-7.164062-16-16-16s-16 7.164062-16 16c0-8.835938-7.164062-16-16-16s-16 7.164062-16 16v-63.144531c.179688-8.039063-5.429688-15.046875-13.3125-16.640625-4.648438-.792969-9.410156.507812-13.011719 3.550781-3.601562 3.042969-5.679687 7.519531-5.675781 12.234375v112l-33.351562-20c-4.144532-2.496094-9.277344-2.695312-13.601563-.527344l-1.253906.632813c-4.777344 2.394531-7.792969 7.277343-7.792969 12.621093-.003906 4.5625 2.199219 8.847657 5.910156 11.496094l50.089844 35.777344h128v-87.144531c.179688-8.039063-5.429688-15.046875-13.3125-16.640625zm0 0" fill="#fec9a3"/></svg>